<svg width="400" height="400" viewBox="0 0 400 400" fill="none" xmlns="http://www.w3.org/2000/svg">
<style>
    #background {
        fill: #482c19;
    }
    #wrench_1, #wrench_2 {
        fill: #f2cd28;
    }
    @media (prefers-color-scheme: dark) {
        #background {
            fill: #f2cd28;
        }
        #wrench_1, #wrench_2 {
            fill: #482c19;
    }
</style>
<ellipse id="background" cx="197.5" cy="188" rx="147.5" ry="150" fill="#482C19"/>
<path id="wrench_1" d="M273.833 114.354L251.75 92.2708C243.625 84.1458 230.396 84.1458 222.271 92.2708L192.792 121.75L214.875 143.833L236.958 121.75L273.833 158.625C279.692 152.748 282.981 144.788 282.981 136.49C282.981 128.191 279.692 120.231 273.833 114.354ZM130.188 206.437C136.333 212.583 146.229 212.583 152.271 206.437L178 180.708L155.917 158.521L130.188 184.25C124.042 190.396 124.042 200.292 130.188 206.437Z"/>
<path id="wrench_2" d="M222.271 151.125L214.875 158.521L181.75 125.396C180.306 123.934 178.587 122.774 176.692 121.982C174.796 121.19 172.762 120.783 170.708 120.783C168.654 120.783 166.62 121.19 164.725 121.982C162.83 122.774 161.11 123.934 159.667 125.396C158.205 126.839 157.045 128.559 156.253 130.454C155.461 132.35 155.053 134.383 155.053 136.438C155.053 138.492 155.461 140.525 156.253 142.421C157.045 144.316 158.205 146.036 159.667 147.479L192.792 180.604L119.875 253.521C112.583 260.813 110.708 272.688 116.854 281.125C118.611 283.6 120.886 285.662 123.521 287.169C126.156 288.675 129.087 289.589 132.112 289.846C135.136 290.104 138.18 289.7 141.031 288.661C143.883 287.623 146.475 285.975 148.625 283.833L244.354 188C245.319 188.964 246.463 189.729 247.723 190.251C248.984 190.773 250.334 191.042 251.698 191.042C253.062 191.042 254.412 190.773 255.672 190.251C256.932 189.729 258.077 188.964 259.042 188C260.006 187.036 260.771 185.891 261.293 184.631C261.815 183.371 262.084 182.02 262.084 180.656C262.084 179.292 261.815 177.942 261.293 176.682C260.771 175.422 260.006 174.277 259.042 173.313L236.958 151.229C236.008 150.245 234.871 149.461 233.614 148.922C232.356 148.383 231.004 148.101 229.636 148.091C228.269 148.081 226.913 148.345 225.648 148.866C224.383 149.387 223.235 150.155 222.271 151.125Z"/>
</svg>
